<svg width="228" height="84" viewBox="0 0 228 84" fill="none" xmlns="http://www.w3.org/2000/svg">
<path d="M11.1609 6.35596V33.3334C11.1609 36.035 11.8385 38.112 13.1858 39.5643C14.5331 41.0166 16.5181 41.7506 19.1329 41.7506C21.7477 41.7506 23.7487 41.0245 25.1438 39.5643C26.5389 38.1042 27.2325 36.0272 27.2325 33.3334V6.35596H38.4013V33.2709C38.4013 37.2999 37.5324 40.7043 35.7865 43.484C34.1124 46.2091 31.6729 48.3954 28.7631 49.7775C25.8215 51.1908 22.545 51.9013 18.9336 51.9013C15.3223 51.9013 12.0857 51.2064 9.23167 49.8165C6.38565 48.4345 4.0339 46.2403 2.47936 43.5231C0.821176 40.7199 -0.00791508 37.2999 5.69439e-05 33.2787V6.35596H11.1609Z" fill="white"/>
<path d="M114.901 10.1819C114.303 9.65096 113.825 9.00288 113.506 8.27671C113.187 7.55055 113.027 6.76192 113.043 5.97329C113.027 5.16904 113.179 4.3726 113.498 3.63863C113.817 2.90466 114.295 2.24096 114.901 1.70219C116.136 0.57 117.739 0 119.7 0C121.613 0 123.192 0.57 124.435 1.70219C125.041 2.24096 125.512 2.90466 125.838 3.63863C126.157 4.3726 126.317 5.16904 126.293 5.97329C126.309 6.76192 126.149 7.55055 125.83 8.27671C125.512 9.00288 125.033 9.65096 124.435 10.1819C123.2 11.3141 121.621 11.8841 119.7 11.8841C117.779 11.8841 116.144 11.3141 114.901 10.1819Z" fill="url(#paint0_linear_49_1627)"/>
<path d="M56.2904 42.3984H72.0989V51.4559H43.8142V42.7185L58.969 24.6659H43.9497V15.6084H71.7721V24.3458L56.2904 42.3984Z" fill="white"/>
<path d="M87.5861 53.2377C83.6648 51.0315 80.4304 47.6869 78.2371 43.5794C75.9664 39.4016 74.8255 34.5079 74.8255 28.8984C74.8255 23.2888 75.9775 18.489 78.2704 14.2642C80.4858 10.1451 83.7534 6.77701 87.7079 4.55901C91.6956 2.3058 96.1818 1.1792 101.133 1.1792C106.085 1.1792 110.571 2.3058 114.558 4.55901C118.513 6.77701 121.781 10.1334 123.996 14.2642C126.3 18.489 127.441 23.3592 127.441 28.8984C127.441 34.4375 126.278 39.3077 123.952 43.5325C121.703 47.6634 118.402 51.0315 114.414 53.2377C110.393 55.4909 105.896 56.6175 100.945 56.6175C95.9935 56.6175 91.5295 55.4909 87.5639 53.2377H87.5861ZM108.544 38.8501C110.626 36.5382 111.667 33.217 111.667 28.9101C111.667 24.6032 110.648 21.2821 108.621 18.9702C107.68 17.8553 106.528 16.9634 105.232 16.3649C103.936 15.7664 102.54 15.473 101.133 15.4965C98.1092 15.4965 95.5947 16.6348 93.6008 18.9232C91.607 21.2116 90.6101 24.5445 90.6101 28.9218C90.6101 33.2992 91.5959 36.5499 93.5565 38.8618C94.4759 39.9884 95.6168 40.8803 96.8907 41.4788C98.1645 42.0773 99.5602 42.3707 100.956 42.3355C102.374 42.359 103.792 42.0538 105.099 41.4553C106.406 40.8568 107.58 39.9649 108.544 38.8501Z" fill="url(#paint1_linear_49_1627)"/>
<path d="M131.638 51.2056V24.642C131.638 22.4193 132.185 20.4334 133.278 18.6843C134.371 16.8989 135.865 15.496 137.76 14.4757C139.691 13.4554 141.877 12.9453 144.319 12.9453H159.459V22.1824H146.122C145.357 22.1824 144.72 22.4375 144.209 22.9476C143.699 23.4578 143.444 24.0954 143.444 24.8606V29.0693H157.71V38.0878H143.444V51.2056H131.638ZM164.832 51.2056V22.893H175.327V51.2056H164.832ZM170.079 19.9961C168.549 19.9961 167.237 19.4495 166.144 18.3564C165.051 17.2268 164.504 15.915 164.504 14.421C164.504 12.8906 165.051 11.5789 166.144 10.4857C167.237 9.35611 168.549 8.79132 170.079 8.79132C171.61 8.79132 172.922 9.35611 174.015 10.4857C175.108 11.5789 175.655 12.8906 175.655 14.421C175.655 15.915 175.108 17.2268 174.015 18.3564C172.922 19.4495 171.61 19.9961 170.079 19.9961ZM211.091 51.9161C208.759 51.9161 206.555 51.4424 204.478 50.495C202.437 49.5112 200.779 48.0901 199.504 46.2317C198.229 44.3734 197.591 42.1142 197.591 39.4542V24.642C197.591 24.1683 197.482 23.7675 197.263 23.4395C197.081 23.0752 196.826 22.8019 196.498 22.6197C196.17 22.4375 195.787 22.3464 195.35 22.3464C194.913 22.3464 194.512 22.4375 194.148 22.6197C193.82 22.8019 193.546 23.0752 193.328 23.4395C193.146 23.7675 193.054 24.1683 193.054 24.642V51.2056H181.795V24.7513C181.795 22.0913 182.414 19.8321 183.653 17.9738C184.929 16.1154 186.605 14.6943 188.682 13.7105C190.759 12.7267 192.982 12.2347 195.35 12.2347C197.719 12.2347 199.923 12.7267 201.964 13.7105C204.004 14.6943 205.662 16.1154 206.937 17.9738C208.213 19.8321 208.85 22.0913 208.85 24.7513V39.5635C208.85 40.0372 208.96 40.4563 209.178 40.8206C209.397 41.185 209.67 41.4583 209.998 41.6405C210.326 41.8227 210.672 41.9138 211.037 41.9138C211.438 41.9138 211.82 41.8227 212.185 41.6405C212.549 41.4583 212.84 41.185 213.059 40.8206C213.278 40.4563 213.387 40.0372 213.387 39.5635V12.9453H224.592V39.4542C224.592 42.1142 223.954 44.3734 222.679 46.2317C221.403 48.0901 219.727 49.5112 217.65 50.495C215.61 51.4424 213.423 51.9161 211.091 51.9161Z" fill="white"/>
<path d="M10.5145 71.809H9.13917C9.05783 71.4134 8.91549 71.0659 8.71215 70.7664C8.51251 70.4669 8.2685 70.2155 7.98013 70.0122C7.69546 69.8052 7.37936 69.6499 7.03183 69.5464C6.68431 69.4428 6.322 69.3911 5.94489 69.3911C5.25724 69.3911 4.63428 69.5648 4.07602 69.9124C3.52146 70.2599 3.07966 70.7719 2.75062 71.4485C2.42528 72.1251 2.26261 72.9551 2.26261 73.9385C2.26261 74.9219 2.42528 75.7519 2.75062 76.4285C3.07966 77.105 3.52146 77.6171 4.07602 77.9646C4.63428 78.3121 5.25724 78.4859 5.94489 78.4859C6.322 78.4859 6.68431 78.4341 7.03183 78.3306C7.37936 78.2271 7.69546 78.0737 7.98013 77.8703C8.2685 77.6633 8.51251 77.41 8.71215 77.1106C8.91549 76.8074 9.05783 76.4599 9.13917 76.068H10.5145C10.411 76.6484 10.2224 77.1679 9.94882 77.6263C9.67524 78.0848 9.33511 78.4748 8.92843 78.7964C8.52175 79.1144 8.06517 79.3565 7.55867 79.5229C7.05586 79.6893 6.51794 79.7725 5.94489 79.7725C4.97626 79.7725 4.11484 79.5359 3.36064 79.0626C2.60644 78.5894 2.01306 77.9165 1.5805 77.044C1.14794 76.1715 0.931663 75.1363 0.931663 73.9385C0.931663 72.7406 1.14794 71.7055 1.5805 70.8329C2.01306 69.9604 2.60644 69.2876 3.36064 68.8143C4.11484 68.3411 4.97626 68.1045 5.94489 68.1045C6.51794 68.1045 7.05586 68.1877 7.55867 68.3541C8.06517 68.5204 8.52175 68.7644 8.92843 69.0861C9.33511 69.404 9.67524 69.7922 9.94882 70.2507C10.2224 70.7054 10.411 71.2248 10.5145 71.809ZM17.5815 79.7946C16.8125 79.7946 16.1378 79.6116 15.5574 79.2456C14.9806 78.8796 14.5296 78.3676 14.2042 77.7095C13.8826 77.0514 13.7218 76.2824 13.7218 75.4025C13.7218 74.5152 13.8826 73.7407 14.2042 73.0789C14.5296 72.4171 14.9806 71.9032 15.5574 71.5372C16.1378 71.1712 16.8125 70.9882 17.5815 70.9882C18.3505 70.9882 19.0234 71.1712 19.6001 71.5372C20.1806 71.9032 20.6316 72.4171 20.9533 73.0789C21.2786 73.7407 21.4413 74.5152 21.4413 75.4025C21.4413 76.2824 21.2786 77.0514 20.9533 77.7095C20.6316 78.3676 20.1806 78.8796 19.6001 79.2456C19.0234 79.6116 18.3505 79.7946 17.5815 79.7946ZM17.5815 78.619C18.1657 78.619 18.6463 78.4692 19.0234 78.1698C19.4005 77.8703 19.6796 77.4766 19.8608 76.9886C20.0419 76.5006 20.1325 75.9719 20.1325 75.4025C20.1325 74.8332 20.0419 74.3026 19.8608 73.8109C19.6796 73.3192 19.4005 72.9218 19.0234 72.6186C18.6463 72.3155 18.1657 72.1639 17.5815 72.1639C16.9974 72.1639 16.5168 72.3155 16.1397 72.6186C15.7626 72.9218 15.4834 73.3192 15.3023 73.8109C15.1211 74.3026 15.0305 74.8332 15.0305 75.4025C15.0305 75.9719 15.1211 76.5006 15.3023 76.9886C15.4834 77.4766 15.7626 77.8703 16.1397 78.1698C16.5168 78.4692 16.9974 78.619 17.5815 78.619ZM26.3095 74.493V79.6172H25.0007V71.0991H26.2651V72.4301H26.376C26.5757 71.9975 26.8788 71.65 27.2855 71.3875C27.6922 71.1213 28.2172 70.9882 28.8605 70.9882C29.4372 70.9882 29.9419 71.1065 30.3744 71.3431C30.807 71.5761 31.1434 71.931 31.3837 72.4079C31.624 72.8811 31.7442 73.48 31.7442 74.2047V79.6172H30.4354V74.2934C30.4354 73.6242 30.2617 73.1029 29.9141 72.7295C29.5666 72.3524 29.0897 72.1639 28.4834 72.1639C28.0656 72.1639 27.6922 72.2545 27.3631 72.4356C27.0378 72.6168 26.7809 72.8811 26.5923 73.2286C26.4038 73.5762 26.3095 73.9976 26.3095 74.493ZM37.0061 74.493V79.6172H35.6974V71.0991H36.9618V72.4301H37.0727C37.2723 71.9975 37.5755 71.65 37.9822 71.3875C38.3888 71.1213 38.9138 70.9882 39.5571 70.9882C40.1339 70.9882 40.6385 71.1065 41.0711 71.3431C41.5036 71.5761 41.8401 71.931 42.0804 72.4079C42.3207 72.8811 42.4408 73.48 42.4408 74.2047V79.6172H41.1321V74.2934C41.1321 73.6242 40.9583 73.1029 40.6108 72.7295C40.2633 72.3524 39.7863 72.1639 39.18 72.1639C38.7622 72.1639 38.3888 72.2545 38.0598 72.4356C37.7345 72.6168 37.4775 72.8811 37.289 73.2286C37.1004 73.5762 37.0061 73.9976 37.0061 74.493ZM49.9654 79.7946C49.1446 79.7946 48.4367 79.6135 47.8414 79.2512C47.2499 78.8852 46.7933 78.375 46.4717 77.7206C46.1537 77.0625 45.9947 76.2972 45.9947 75.4247C45.9947 74.5522 46.1537 73.7832 46.4717 73.1177C46.7933 72.4486 47.2406 71.9273 47.8137 71.5539C48.3904 71.1768 49.0633 70.9882 49.8323 70.9882C50.2759 70.9882 50.714 71.0622 51.1466 71.21C51.5792 71.3579 51.9729 71.5982 52.3278 71.931C52.6827 72.26 52.9656 72.6963 53.1763 73.2397C53.387 73.7832 53.4924 74.4524 53.4924 75.2472V75.8018H46.9264V74.6705H52.1615C52.1615 74.1899 52.0653 73.761 51.8731 73.3839C51.6845 73.0068 51.4146 72.7092 51.0634 72.4911C50.7159 72.273 50.3055 72.1639 49.8323 72.1639C49.311 72.1639 48.86 72.2933 48.4792 72.5521C48.1021 72.8072 47.8118 73.1399 47.6085 73.5503C47.4052 73.9607 47.3035 74.4006 47.3035 74.8701V75.6243C47.3035 76.2676 47.4144 76.813 47.6362 77.2603C47.8618 77.704 48.1742 78.0422 48.5734 78.2751C48.9727 78.5044 49.4367 78.619 49.9654 78.619C50.3092 78.619 50.6198 78.5709 50.8971 78.4748C51.178 78.375 51.4202 78.2271 51.6235 78.0311C51.8269 77.8315 51.984 77.5838 52.0949 77.288L53.3593 77.643C53.2262 78.0718 53.0025 78.4489 52.6883 78.7743C52.374 79.0959 51.9858 79.3473 51.5237 79.5285C51.0616 79.7059 50.5421 79.7946 49.9654 79.7946ZM60.5054 79.7946C59.7068 79.7946 59.0192 79.6061 58.4424 79.229C57.8657 78.8519 57.422 78.3325 57.1115 77.6707C56.8009 77.0089 56.6456 76.2529 56.6456 75.4025C56.6456 74.5374 56.8046 73.774 57.1226 73.1122C57.4442 72.4467 57.8915 71.9273 58.4646 71.5539C59.0413 71.1768 59.7142 70.9882 60.4832 70.9882C61.0821 70.9882 61.6219 71.0991 62.1025 71.321C62.5831 71.5428 62.9769 71.8533 63.2837 72.2526C63.5906 72.6519 63.781 73.1177 63.8549 73.6501H62.5462C62.4463 73.2619 62.2245 72.9181 61.8807 72.6186C61.5406 72.3155 61.0821 72.1639 60.5054 72.1639C59.9952 72.1639 59.5478 72.297 59.1633 72.5632C58.7825 72.8257 58.4849 73.1972 58.2705 73.6778C58.0598 74.1548 57.9544 74.7149 57.9544 75.3582C57.9544 76.0162 58.0579 76.5893 58.265 77.0773C58.4757 77.5653 58.7715 77.9443 59.1522 78.2141C59.5367 78.484 59.9878 78.619 60.5054 78.619C60.8455 78.619 61.1542 78.5598 61.4315 78.4415C61.7088 78.3232 61.9435 78.1531 62.1358 77.9313C62.328 77.7095 62.4648 77.4433 62.5462 77.1328H63.8549C63.781 77.6356 63.598 78.0884 63.3059 78.4914C63.0175 78.8907 62.6349 79.2087 62.158 79.4453C61.6847 79.6782 61.1339 79.7946 60.5054 79.7946ZM71.0343 71.0991V72.2083H66.62V71.0991H71.0343ZM67.9066 69.0583H69.2153V77.1771C69.2153 77.5468 69.2689 77.8241 69.3761 78.009C69.4871 78.1901 69.6275 78.3121 69.7976 78.375C69.9714 78.4341 70.1544 78.4637 70.3466 78.4637C70.4908 78.4637 70.6091 78.4563 70.7015 78.4415C70.794 78.423 70.8679 78.4082 70.9234 78.3972L71.1896 79.5728C71.1008 79.6061 70.977 79.6394 70.818 79.6726C70.659 79.7096 70.4575 79.7281 70.2135 79.7281C69.8438 79.7281 69.4815 79.6486 69.1266 79.4896C68.7754 79.3307 68.4833 79.0885 68.2504 78.7632C68.0212 78.4378 67.9066 78.0274 67.9066 77.532V69.0583ZM75.5185 79.7059C75.2449 79.7059 75.0101 79.6079 74.8142 79.412C74.6182 79.2161 74.5202 78.9813 74.5202 78.7077C74.5202 78.4341 74.6182 78.1994 74.8142 78.0034C75.0101 77.8075 75.2449 77.7095 75.5185 77.7095C75.792 77.7095 76.0268 77.8075 76.2227 78.0034C76.4187 78.1994 76.5167 78.4341 76.5167 78.7077C76.5167 78.8889 76.4705 79.0552 76.378 79.2068C76.2893 79.3584 76.1691 79.4804 76.0176 79.5728C75.8697 79.6616 75.7033 79.7059 75.5185 79.7059ZM95.6973 71.809H94.322C94.2406 71.4134 94.0983 71.0659 93.8949 70.7664C93.6953 70.4669 93.4513 70.2155 93.1629 70.0122C92.8783 69.8052 92.5622 69.6499 92.2146 69.5464C91.8671 69.4428 91.5048 69.3911 91.1277 69.3911C90.44 69.3911 89.8171 69.5648 89.2588 69.9124C88.7043 70.2599 88.2625 70.7719 87.9334 71.4485C87.6081 72.1251 87.4454 72.9551 87.4454 73.9385C87.4454 74.9219 87.6081 75.7519 87.9334 76.4285C88.2625 77.105 88.7043 77.6171 89.2588 77.9646C89.8171 78.3121 90.44 78.4859 91.1277 78.4859C91.5048 78.4859 91.8671 78.4341 92.2146 78.3306C92.5622 78.2271 92.8783 78.0737 93.1629 77.8703C93.4513 77.6633 93.6953 77.41 93.8949 77.1106C94.0983 76.8074 94.2406 76.4599 94.322 76.068H95.6973C95.5938 76.6484 95.4052 77.1679 95.1316 77.6263C94.858 78.0848 94.5179 78.4748 94.1112 78.7964C93.7045 79.1144 93.248 79.3565 92.7415 79.5229C92.2387 79.6893 91.7007 79.7725 91.1277 79.7725C90.1591 79.7725 89.2976 79.5359 88.5434 79.0626C87.7892 78.5894 87.1958 77.9165 86.7633 77.044C86.3307 76.1715 86.1145 75.1363 86.1145 73.9385C86.1145 72.7406 86.3307 71.7055 86.7633 70.8329C87.1958 69.9604 87.7892 69.2876 88.5434 68.8143C89.2976 68.3411 90.1591 68.1045 91.1277 68.1045C91.7007 68.1045 92.2387 68.1877 92.7415 68.3541C93.248 68.5204 93.7045 68.7644 94.1112 69.0861C94.5179 69.404 94.858 69.7922 95.1316 70.2507C95.4052 70.7054 95.5938 71.2248 95.6973 71.809ZM102.764 79.7946C101.995 79.7946 101.321 79.6116 100.74 79.2456C100.163 78.8796 99.7124 78.3676 99.387 77.7095C99.0654 77.0514 98.9046 76.2824 98.9046 75.4025C98.9046 74.5152 99.0654 73.7407 99.387 73.0789C99.7124 72.4171 100.163 71.9032 100.74 71.5372C101.321 71.1712 101.995 70.9882 102.764 70.9882C103.533 70.9882 104.206 71.1712 104.783 71.5372C105.363 71.9032 105.814 72.4171 106.136 73.0789C106.461 73.7407 106.624 74.5152 106.624 75.4025C106.624 76.2824 106.461 77.0514 106.136 77.7095C105.814 78.3676 105.363 78.8796 104.783 79.2456C104.206 79.6116 103.533 79.7946 102.764 79.7946ZM102.764 78.619C103.348 78.619 103.829 78.4692 104.206 78.1698C104.583 77.8703 104.862 77.4766 105.044 76.9886C105.225 76.5006 105.315 75.9719 105.315 75.4025C105.315 74.8332 105.225 74.3026 105.044 73.8109C104.862 73.3192 104.583 72.9218 104.206 72.6186C103.829 72.3155 103.348 72.1639 102.764 72.1639C102.18 72.1639 101.7 72.3155 101.322 72.6186C100.945 72.9218 100.666 73.3192 100.485 73.8109C100.304 74.3026 100.213 74.8332 100.213 75.4025C100.213 75.9719 100.304 76.5006 100.485 76.9886C100.666 77.4766 100.945 77.8703 101.322 78.1698C101.7 78.4692 102.18 78.619 102.764 78.619ZM111.492 74.493V79.6172H110.184V71.0991H111.448V72.4301H111.559C111.758 71.9975 112.062 71.65 112.468 71.3875C112.875 71.1213 113.4 70.9882 114.043 70.9882C114.62 70.9882 115.125 71.1065 115.557 71.3431C115.99 71.5761 116.326 71.931 116.567 72.4079C116.807 72.8811 116.927 73.48 116.927 74.2047V79.6172H115.618V74.2934C115.618 73.6242 115.444 73.1029 115.097 72.7295C114.749 72.3524 114.272 72.1639 113.666 72.1639C113.248 72.1639 112.875 72.2545 112.546 72.4356C112.221 72.6168 111.964 72.8811 111.775 73.2286C111.587 73.5762 111.492 73.9976 111.492 74.493ZM124.585 71.0991V72.2083H120.17V71.0991H124.585ZM121.457 69.0583H122.766V77.1771C122.766 77.5468 122.819 77.8241 122.926 78.009C123.037 78.1901 123.178 78.3121 123.348 78.375C123.522 78.4341 123.705 78.4637 123.897 78.4637C124.041 78.4637 124.159 78.4563 124.252 78.4415C124.344 78.423 124.418 78.4082 124.474 78.3972L124.74 79.5728C124.651 79.6061 124.527 79.6394 124.368 79.6726C124.209 79.7096 124.008 79.7281 123.764 79.7281C123.394 79.7281 123.032 79.6486 122.677 79.4896C122.326 79.3307 122.034 79.0885 121.801 78.7632C121.572 78.4378 121.457 78.0274 121.457 77.532V69.0583ZM128.115 79.6172V71.0991H129.379V72.3857H129.468C129.623 71.9642 129.904 71.6223 130.311 71.3598C130.718 71.0973 131.176 70.966 131.686 70.966C131.782 70.966 131.903 70.9679 132.047 70.9716C132.191 70.9753 132.3 70.9808 132.374 70.9882V72.3192C132.33 72.3081 132.228 72.2914 132.069 72.2693C131.914 72.2434 131.749 72.2304 131.575 72.2304C131.161 72.2304 130.792 72.3173 130.466 72.4911C130.145 72.6611 129.89 72.8978 129.701 73.2009C129.516 73.5004 129.424 73.8424 129.424 74.2269V79.6172H128.115ZM138.688 79.7946C137.919 79.7946 137.245 79.6116 136.664 79.2456C136.087 78.8796 135.636 78.3676 135.311 77.7095C134.989 77.0514 134.828 76.2824 134.828 75.4025C134.828 74.5152 134.989 73.7407 135.311 73.0789C135.636 72.4171 136.087 71.9032 136.664 71.5372C137.245 71.1712 137.919 70.9882 138.688 70.9882C139.457 70.9882 140.13 71.1712 140.707 71.5372C141.287 71.9032 141.738 72.4171 142.06 73.0789C142.385 73.7407 142.548 74.5152 142.548 75.4025C142.548 76.2824 142.385 77.0514 142.06 77.7095C141.738 78.3676 141.287 78.8796 140.707 79.2456C140.13 79.6116 139.457 79.7946 138.688 79.7946ZM138.688 78.619C139.272 78.619 139.753 78.4692 140.13 78.1698C140.507 77.8703 140.786 77.4766 140.967 76.9886C141.149 76.5006 141.239 75.9719 141.239 75.4025C141.239 74.8332 141.149 74.3026 140.967 73.8109C140.786 73.3192 140.507 72.9218 140.13 72.6186C139.753 72.3155 139.272 72.1639 138.688 72.1639C138.104 72.1639 137.623 72.3155 137.246 72.6186C136.869 72.9218 136.59 73.3192 136.409 73.8109C136.228 74.3026 136.137 74.8332 136.137 75.4025C136.137 75.9719 136.228 76.5006 136.409 76.9886C136.59 77.4766 136.869 77.8703 137.246 78.1698C137.623 78.4692 138.104 78.619 138.688 78.619ZM147.416 68.2598V79.6172H146.107V68.2598H147.416ZM152.329 79.7059C152.055 79.7059 151.82 79.6079 151.624 79.412C151.429 79.2161 151.331 78.9813 151.331 78.7077C151.331 78.4341 151.429 78.1994 151.624 78.0034C151.82 77.8075 152.055 77.7095 152.329 77.7095C152.602 77.7095 152.837 77.8075 153.033 78.0034C153.229 78.1994 153.327 78.4341 153.327 78.7077C153.327 78.8889 153.281 79.0552 153.188 79.2068C153.1 79.3584 152.979 79.4804 152.828 79.5728C152.68 79.6616 152.514 79.7059 152.329 79.7059ZM172.508 71.809H171.132C171.051 71.4134 170.909 71.0659 170.705 70.7664C170.506 70.4669 170.262 70.2155 169.973 70.0122C169.689 69.8052 169.372 69.6499 169.025 69.5464C168.677 69.4428 168.315 69.3911 167.938 69.3911C167.25 69.3911 166.627 69.5648 166.069 69.9124C165.515 70.2599 165.073 70.7719 164.744 71.4485C164.418 72.1251 164.256 72.9551 164.256 73.9385C164.256 74.9219 164.418 75.7519 164.744 76.4285C165.073 77.105 165.515 77.6171 166.069 77.9646C166.627 78.3121 167.25 78.4859 167.938 78.4859C168.315 78.4859 168.677 78.4341 169.025 78.3306C169.372 78.2271 169.689 78.0737 169.973 77.8703C170.262 77.6633 170.506 77.41 170.705 77.1106C170.909 76.8074 171.051 76.4599 171.132 76.068H172.508C172.404 76.6484 172.215 77.1679 171.942 77.6263C171.668 78.0848 171.328 78.4748 170.922 78.7964C170.515 79.1144 170.058 79.3565 169.552 79.5229C169.049 79.6893 168.511 79.7725 167.938 79.7725C166.969 79.7725 166.108 79.5359 165.354 79.0626C164.6 78.5894 164.006 77.9165 163.574 77.044C163.141 76.1715 162.925 75.1363 162.925 73.9385C162.925 72.7406 163.141 71.7055 163.574 70.8329C164.006 69.9604 164.6 69.2876 165.354 68.8143C166.108 68.3411 166.969 68.1045 167.938 68.1045C168.511 68.1045 169.049 68.1877 169.552 68.3541C170.058 68.5204 170.515 68.7644 170.922 69.0861C171.328 69.404 171.668 69.7922 171.942 70.2507C172.215 70.7054 172.404 71.2248 172.508 71.809ZM179.575 79.7946C178.806 79.7946 178.131 79.6116 177.55 79.2456C176.974 78.8796 176.523 78.3676 176.197 77.7095C175.876 77.0514 175.715 76.2824 175.715 75.4025C175.715 74.5152 175.876 73.7407 176.197 73.0789C176.523 72.4171 176.974 71.9032 177.55 71.5372C178.131 71.1712 178.806 70.9882 179.575 70.9882C180.344 70.9882 181.016 71.1712 181.593 71.5372C182.174 71.9032 182.625 72.4171 182.946 73.0789C183.272 73.7407 183.434 74.5152 183.434 75.4025C183.434 76.2824 183.272 77.0514 182.946 77.7095C182.625 78.3676 182.174 78.8796 181.593 79.2456C181.016 79.6116 180.344 79.7946 179.575 79.7946ZM179.575 78.619C180.159 78.619 180.639 78.4692 181.016 78.1698C181.394 77.8703 181.673 77.4766 181.854 76.9886C182.035 76.5006 182.126 75.9719 182.126 75.4025C182.126 74.8332 182.035 74.3026 181.854 73.8109C181.673 73.3192 181.394 72.9218 181.016 72.6186C180.639 72.3155 180.159 72.1639 179.575 72.1639C178.99 72.1639 178.51 72.3155 178.133 72.6186C177.756 72.9218 177.477 73.3192 177.295 73.8109C177.114 74.3026 177.024 74.8332 177.024 75.4025C177.024 75.9719 177.114 76.5006 177.295 76.9886C177.477 77.4766 177.756 77.8703 178.133 78.1698C178.51 78.4692 178.99 78.619 179.575 78.619ZM186.994 79.6172V71.0991H188.258V72.4301H188.369C188.547 71.9753 188.833 71.6223 189.229 71.3709C189.624 71.1158 190.099 70.9882 190.654 70.9882C191.216 70.9882 191.684 71.1158 192.057 71.3709C192.434 71.6223 192.728 71.9753 192.939 72.4301H193.027C193.246 71.9901 193.573 71.6408 194.009 71.382C194.445 71.1195 194.968 70.9882 195.578 70.9882C196.34 70.9882 196.963 71.2267 197.447 71.7036C197.932 72.1768 198.174 72.9144 198.174 73.9163V79.6172H196.865V73.9163C196.865 73.2878 196.693 72.8386 196.349 72.5687C196.005 72.2988 195.601 72.1639 195.135 72.1639C194.536 72.1639 194.072 72.345 193.743 72.7074C193.414 73.066 193.249 73.5207 193.249 74.0716V79.6172H191.918V73.7832C191.918 73.2989 191.761 72.9088 191.447 72.6131C191.133 72.3136 190.728 72.1639 190.232 72.1639C189.892 72.1639 189.574 72.2545 189.279 72.4356C188.987 72.6168 188.75 72.8682 188.569 73.1898C188.391 73.5078 188.303 73.8756 188.303 74.2934V79.6172H186.994ZM202.128 82.8115V71.0991H203.393V72.4523H203.548C203.644 72.3044 203.777 72.1158 203.947 71.8866C204.121 71.6537 204.369 71.4467 204.69 71.2655C205.016 71.0806 205.456 70.9882 206.01 70.9882C206.727 70.9882 207.36 71.1675 207.907 71.5261C208.454 71.8848 208.881 72.3931 209.188 73.0512C209.495 73.7093 209.648 74.4856 209.648 75.3803C209.648 76.2824 209.495 77.0644 209.188 77.7261C208.881 78.3842 208.456 78.8944 207.912 79.2567C207.369 79.6153 206.742 79.7946 206.032 79.7946C205.485 79.7946 205.047 79.7041 204.718 79.5229C204.389 79.3381 204.136 79.1292 203.958 78.8963C203.781 78.6596 203.644 78.4637 203.548 78.3084H203.437V82.8115H202.128ZM203.415 75.3582C203.415 76.0014 203.509 76.569 203.698 77.0607C203.886 77.5487 204.162 77.9313 204.524 78.2086C204.886 78.4822 205.33 78.619 205.855 78.619C206.402 78.619 206.859 78.4748 207.225 78.1864C207.594 77.8944 207.872 77.5025 208.057 77.0108C208.245 76.5153 208.339 75.9645 208.339 75.3582C208.339 74.7592 208.247 74.2195 208.062 73.7388C207.881 73.2545 207.606 72.8719 207.236 72.5909C206.87 72.3062 206.41 72.1639 205.855 72.1639C205.323 72.1639 204.875 72.2988 204.513 72.5687C204.151 72.8349 203.877 73.2083 203.692 73.6889C203.507 74.1659 203.415 74.7223 203.415 75.3582ZM214.515 68.2598V79.6172H213.206V68.2598H214.515ZM219.317 82.8115C219.095 82.8115 218.897 82.793 218.723 82.756C218.55 82.7227 218.429 82.6895 218.363 82.6562L218.696 81.5027C219.014 81.584 219.294 81.6136 219.539 81.5914C219.783 81.5692 219.999 81.4602 220.187 81.2642C220.38 81.072 220.555 80.7596 220.714 80.327L220.958 79.6616L217.808 71.0991H219.228L221.579 77.887H221.668L224.019 71.0991H225.439L221.823 80.8594C221.661 81.2994 221.459 81.6635 221.219 81.9519C220.979 82.244 220.699 82.4602 220.381 82.6007C220.067 82.7412 219.712 82.8115 219.317 82.8115Z" fill="#C4C4C4"/>
<defs>
<linearGradient id="paint0_linear_49_1627" x1="119.669" y1="11.8841" x2="119.669" y2="0" gradientUnits="userSpaceOnUse">
<stop offset="0.100962" stop-color="#320F4F"/>
<stop offset="1" stop-color="#38C0EE"/>
</linearGradient>
<linearGradient id="paint1_linear_49_1627" x1="101.133" y1="56.6176" x2="101.133" y2="1.1792" gradientUnits="userSpaceOnUse">
<stop stop-color="#37CCF7"/>
<stop offset="1" stop-color="#39105E"/>
</linearGradient>
</defs>
</svg>
