<svg width="114" height="40" viewBox="0 0 114 40" fill="none" xmlns="http://www.w3.org/2000/svg">
<path d="M5.58048 3.17804V16.6667C5.58048 18.0176 5.91929 19.0561 6.59292 19.7822C7.26656 20.5084 8.25908 20.8754 9.56649 20.8754C10.8739 20.8754 11.8744 20.5123 12.5719 19.7822C13.2695 19.0522 13.6163 18.0137 13.6163 16.6667V3.17804H19.2007V16.6355C19.2007 18.65 18.7662 20.3522 17.8933 21.7421C17.0562 23.1046 15.8365 24.1978 14.3816 24.8888C12.9108 25.5954 11.2725 25.9507 9.46684 25.9507C7.66118 25.9507 6.04286 25.6032 4.61586 24.9083C3.19286 24.2173 2.01698 23.1202 1.23971 21.7616C0.410619 20.36 -0.00392702 18.65 5.89895e-05 16.6394V3.17804H5.58048Z" fill="white"/>
<path d="M57.4505 5.09105C57.1515 4.82557 56.9124 4.50153 56.7529 4.13844C56.5935 3.77536 56.5138 3.38105 56.5217 2.98673C56.5138 2.58461 56.5895 2.18639 56.7489 1.8194C56.9084 1.45242 57.1475 1.12057 57.4505 0.851184C58.0683 0.285088 58.8695 8.7738e-05 59.8501 8.7738e-05C60.8067 8.7738e-05 61.5959 0.285088 62.2178 0.851184C62.5207 1.12057 62.7559 1.45242 62.9193 1.8194C63.0787 2.18639 63.1584 2.58461 63.1465 2.98673C63.1545 3.38105 63.0747 3.77536 62.9153 4.13844C62.7559 4.50153 62.5167 4.82557 62.2178 5.09105C61.5999 5.65714 60.8107 5.94214 59.8501 5.94214C58.8894 5.94214 58.0723 5.65714 57.4505 5.09105Z" fill="url(#paint0_linear_49_1325)"/>
<path d="M28.1452 21.1994H36.0495V25.7282H21.9071V21.3595L29.4845 12.3332H21.9749V7.8044H35.8861V12.1731L28.1452 21.1994Z" fill="white"/>
<path d="M43.7931 26.6189C41.8325 25.5157 40.2153 23.8434 39.1186 21.7897C37.9833 19.7008 37.4128 17.254 37.4128 14.4492C37.4128 11.6444 37.9888 9.24452 39.1353 7.13213C40.243 5.07256 41.8768 3.38852 43.854 2.27952C45.8479 1.15291 48.091 0.589613 50.5667 0.589613C53.0423 0.589613 55.2854 1.15291 57.2793 2.27952C59.2565 3.38852 60.8903 5.06669 61.998 7.13213C63.15 9.24452 63.7205 11.6796 63.7205 14.4492C63.7205 17.2188 63.139 19.6539 61.9759 21.7663C60.8516 23.8317 59.2011 25.5157 57.2073 26.6189C55.1968 27.7455 52.9482 28.3088 50.4725 28.3088C47.9968 28.3088 45.7648 27.7455 43.782 26.6189H43.7931ZM54.2719 19.425C55.3131 18.2691 55.8337 16.6085 55.8337 14.4551C55.8337 12.3016 55.3242 10.641 54.3106 9.4851C53.8399 8.92766 53.2639 8.48171 52.6159 8.18246C51.9679 7.88321 51.27 7.73651 50.5667 7.74825C49.0547 7.74825 47.7974 8.31742 46.8005 9.46163C45.8036 10.6058 45.3051 12.2723 45.3051 14.4609C45.3051 16.6496 45.798 18.275 46.7784 19.4309C47.238 19.9942 47.8085 20.4402 48.4454 20.7394C49.0823 21.0387 49.7802 21.1854 50.478 21.1678C51.187 21.1795 51.8959 21.0269 52.5494 20.7277C53.203 20.4284 53.79 19.9825 54.2719 19.425Z" fill="url(#paint1_linear_49_1325)"/>
<path d="M65.8192 25.1028V11.821C65.8192 10.7097 66.0924 9.71673 66.639 8.84221C67.1856 7.94947 67.9326 7.24803 68.88 6.7379C69.8456 6.22776 70.9387 5.97269 72.1594 5.97269H79.7295V10.5913H73.0613C72.6787 10.5913 72.3598 10.7188 72.1048 10.9739C71.8497 11.2289 71.7222 11.5478 71.7222 11.9304V14.0347H78.855V18.5439H71.7222V25.1028H65.8192ZM82.4163 25.1028V10.9465H87.6634V25.1028H82.4163ZM85.0398 9.4981C84.2746 9.4981 83.6187 9.22481 83.0721 8.67824C82.5256 8.11344 82.2523 7.45755 82.2523 6.71057C82.2523 5.94536 82.5256 5.28947 83.0721 4.7429C83.6187 4.1781 84.2746 3.8957 85.0398 3.8957C85.805 3.8957 86.4609 4.1781 87.0075 4.7429C87.5541 5.28947 87.8274 5.94536 87.8274 6.71057C87.8274 7.45755 87.5541 8.11344 87.0075 8.67824C86.4609 9.22481 85.805 9.4981 85.0398 9.4981ZM105.546 25.4581C104.38 25.4581 103.278 25.2213 102.239 24.7476C101.219 24.2556 100.39 23.5451 99.7521 22.6159C99.1144 21.6867 98.7956 20.5571 98.7956 19.2271V11.821C98.7956 11.5842 98.7409 11.3838 98.6316 11.2198C98.5405 11.0376 98.413 10.901 98.249 10.8099C98.085 10.7188 97.8937 10.6732 97.6751 10.6732C97.4565 10.6732 97.2561 10.7188 97.0739 10.8099C96.9099 10.901 96.7733 11.0376 96.6639 11.2198C96.5728 11.3838 96.5273 11.5842 96.5273 11.821V25.1028H90.8976V11.8757C90.8976 10.5457 91.2073 9.41612 91.8267 8.48694C92.4644 7.55776 93.3025 6.84721 94.341 6.35529C95.3795 5.86337 96.4909 5.61742 97.6751 5.61742C98.8594 5.61742 99.9616 5.86337 100.982 6.35529C102.002 6.84721 102.831 7.55776 103.469 8.48694C104.106 9.41612 104.425 10.5457 104.425 11.8757V19.2818C104.425 19.5187 104.48 19.7282 104.589 19.9104C104.699 20.0926 104.835 20.2292 104.999 20.3203C105.163 20.4114 105.336 20.4569 105.518 20.4569C105.719 20.4569 105.91 20.4114 106.092 20.3203C106.275 20.2292 106.42 20.0926 106.53 19.9104C106.639 19.7282 106.694 19.5187 106.694 19.2818V5.97269H112.296V19.2271C112.296 20.5571 111.977 21.6867 111.339 22.6159C110.702 23.5451 109.864 24.2556 108.825 24.7476C107.805 25.2213 106.712 25.4581 105.546 25.4581Z" fill="white"/>
<path d="M5.25724 33.4046H4.56958C4.52892 33.2068 4.45775 33.033 4.35608 32.8833C4.25626 32.7336 4.13425 32.6079 3.99007 32.5062C3.84773 32.4027 3.68968 32.325 3.51592 32.2733C3.34215 32.2215 3.161 32.1956 2.97245 32.1956C2.62862 32.1956 2.31714 32.2825 2.03801 32.4563C1.76073 32.6301 1.53983 32.8861 1.37531 33.2244C1.21264 33.5626 1.1313 33.9776 1.1313 34.4693C1.1313 34.9611 1.21264 35.3761 1.37531 35.7143C1.53983 36.0526 1.76073 36.3086 2.03801 36.4824C2.31714 36.6562 2.62862 36.743 2.97245 36.743C3.161 36.743 3.34215 36.7172 3.51592 36.6654C3.68968 36.6137 3.84773 36.5369 3.99007 36.4353C4.13425 36.3317 4.25626 36.2051 4.35608 36.0554C4.45775 35.9038 4.52892 35.7301 4.56958 35.5341H5.25724C5.20548 35.8243 5.1112 36.084 4.97441 36.3133C4.83762 36.5425 4.66756 36.7375 4.46422 36.8983C4.26088 37.0573 4.03258 37.1784 3.77933 37.2616C3.52793 37.3447 3.25897 37.3863 2.97245 37.3863C2.48813 37.3863 2.05742 37.268 1.68032 37.0314C1.30322 36.7948 1.00653 36.4584 0.790249 36.0221C0.573971 35.5859 0.465831 35.0683 0.465831 34.4693C0.465831 33.8704 0.573971 33.3528 0.790249 32.9166C1.00653 32.4803 1.30322 32.1439 1.68032 31.9073C2.05742 31.6707 2.48813 31.5524 2.97245 31.5524C3.25897 31.5524 3.52793 31.5939 3.77933 31.6771C4.03258 31.7603 4.26088 31.8823 4.46422 32.0431C4.66756 32.2021 4.83762 32.3962 4.97441 32.6254C5.1112 32.8528 5.20548 33.1125 5.25724 33.4046ZM8.79076 37.3974C8.40627 37.3974 8.06891 37.3059 7.77869 37.1229C7.49032 36.9399 7.2648 36.6839 7.10212 36.3549C6.9413 36.0258 6.86089 35.6413 6.86089 35.2014C6.86089 34.7577 6.9413 34.3705 7.10212 34.0396C7.2648 33.7087 7.49032 33.4517 7.77869 33.2687C8.06891 33.0857 8.40627 32.9942 8.79076 32.9942C9.17526 32.9942 9.51169 33.0857 9.80006 33.2687C10.0903 33.4517 10.3158 33.7087 10.4766 34.0396C10.6393 34.3705 10.7206 34.7577 10.7206 35.2014C10.7206 35.6413 10.6393 36.0258 10.4766 36.3549C10.3158 36.6839 10.0903 36.9399 9.80006 37.1229C9.51169 37.3059 9.17526 37.3974 8.79076 37.3974ZM8.79076 36.8096C9.08283 36.8096 9.32314 36.7347 9.51169 36.585C9.70024 36.4353 9.83981 36.2384 9.93039 35.9944C10.021 35.7504 10.0663 35.486 10.0663 35.2014C10.0663 34.9167 10.021 34.6514 9.93039 34.4056C9.83981 34.1597 9.70024 33.961 9.51169 33.8094C9.32314 33.6578 9.08283 33.5821 8.79076 33.5821C8.49869 33.5821 8.25838 33.6578 8.06983 33.8094C7.88128 33.961 7.74172 34.1597 7.65114 34.4056C7.56056 34.6514 7.51527 34.9167 7.51527 35.2014C7.51527 35.486 7.56056 35.7504 7.65114 35.9944C7.74172 36.2384 7.88128 36.4353 8.06983 36.585C8.25838 36.7347 8.49869 36.8096 8.79076 36.8096ZM13.1547 34.7466V37.3087H12.5004V33.0497H13.1326V33.7151H13.188C13.2878 33.4989 13.4394 33.3251 13.6428 33.1939C13.8461 33.0608 14.1086 32.9942 14.4302 32.9942C14.7186 32.9942 14.9709 33.0534 15.1872 33.1717C15.4035 33.2881 15.5717 33.4656 15.6919 33.7041C15.812 33.9407 15.8721 34.2401 15.8721 34.6024V37.3087H15.2177V34.6468C15.2177 34.3122 15.1308 34.0516 14.9571 33.8649C14.7833 33.6763 14.5448 33.5821 14.2417 33.5821C14.0328 33.5821 13.8461 33.6273 13.6816 33.7179C13.5189 33.8085 13.3904 33.9407 13.2962 34.1144C13.2019 34.2882 13.1547 34.4989 13.1547 34.7466ZM18.5031 34.7466V37.3087H17.8487V33.0497H18.4809V33.7151H18.5363C18.6362 33.4989 18.7877 33.3251 18.9911 33.1939C19.1944 33.0608 19.4569 32.9942 19.7786 32.9942C20.0669 32.9942 20.3193 33.0534 20.5355 33.1717C20.7518 33.2881 20.92 33.4656 21.0402 33.7041C21.1603 33.9407 21.2204 34.2401 21.2204 34.6024V37.3087H20.566V34.6468C20.566 34.3122 20.4792 34.0516 20.3054 33.8649C20.1316 33.6763 19.8932 33.5821 19.59 33.5821C19.3811 33.5821 19.1944 33.6273 19.0299 33.7179C18.8672 33.8085 18.7388 33.9407 18.6445 34.1144C18.5502 34.2882 18.5031 34.4989 18.5031 34.7466ZM24.9827 37.3974C24.5723 37.3974 24.2183 37.3069 23.9207 37.1257C23.6249 36.9427 23.3967 36.6876 23.2358 36.3604C23.0769 36.0314 22.9974 35.6487 22.9974 35.2125C22.9974 34.7762 23.0769 34.3917 23.2358 34.059C23.3967 33.7244 23.6203 33.4637 23.9068 33.277C24.1952 33.0885 24.5317 32.9942 24.9161 32.9942C25.138 32.9942 25.357 33.0312 25.5733 33.1051C25.7896 33.1791 25.9865 33.2992 26.1639 33.4656C26.3414 33.6301 26.4828 33.8482 26.5882 34.12C26.6935 34.3917 26.7462 34.7263 26.7462 35.1237V35.401H23.4632V34.8354H26.0807C26.0807 34.595 26.0327 34.3806 25.9365 34.1921C25.8423 34.0035 25.7073 33.8547 25.5317 33.7456C25.3579 33.6366 25.1528 33.5821 24.9161 33.5821C24.6555 33.5821 24.43 33.6467 24.2396 33.7761C24.051 33.9037 23.9059 34.0701 23.8043 34.2753C23.7026 34.4804 23.6517 34.7004 23.6517 34.9352V35.3123C23.6517 35.6339 23.7072 35.9066 23.8181 36.1303C23.9309 36.3521 24.0871 36.5212 24.2867 36.6377C24.4864 36.7523 24.7184 36.8096 24.9827 36.8096C25.1546 36.8096 25.3099 36.7856 25.4485 36.7375C25.589 36.6876 25.7101 36.6137 25.8118 36.5157C25.9134 36.4159 25.992 36.292 26.0475 36.1441L26.6797 36.3216C26.6131 36.536 26.5013 36.7246 26.3441 36.8872C26.187 37.0481 25.9929 37.1738 25.7619 37.2643C25.5308 37.3531 25.2711 37.3974 24.9827 37.3974ZM30.2527 37.3974C29.8534 37.3974 29.5096 37.3032 29.2212 37.1146C28.9328 36.9261 28.711 36.6663 28.5557 36.3354C28.4005 36.0046 28.3228 35.6265 28.3228 35.2014C28.3228 34.7688 28.4023 34.3871 28.5613 34.0562C28.7221 33.7235 28.9458 33.4637 29.2323 33.277C29.5207 33.0885 29.8571 32.9942 30.2416 32.9942C30.5411 32.9942 30.8109 33.0497 31.0513 33.1606C31.2916 33.2715 31.4884 33.4268 31.6419 33.6264C31.7953 33.8261 31.8905 34.059 31.9275 34.3252H31.2731C31.2232 34.1311 31.1123 33.9592 30.9403 33.8094C30.7703 33.6578 30.5411 33.5821 30.2527 33.5821C29.9976 33.5821 29.7739 33.6486 29.5817 33.7817C29.3913 33.9129 29.2425 34.0987 29.1352 34.339C29.0299 34.5775 28.9772 34.8575 28.9772 35.1792C28.9772 35.5082 29.029 35.7947 29.1325 36.0388C29.2378 36.2828 29.3857 36.4722 29.5761 36.6072C29.7684 36.7421 29.9939 36.8096 30.2527 36.8096C30.4228 36.8096 30.5771 36.78 30.7157 36.7209C30.8544 36.6617 30.9718 36.5767 31.0679 36.4658C31.164 36.3549 31.2324 36.2218 31.2731 36.0665H31.9275C31.8905 36.3179 31.799 36.5443 31.653 36.7458C31.5088 36.9455 31.3174 37.1044 31.079 37.2227C30.8424 37.3392 30.5669 37.3974 30.2527 37.3974ZM35.5171 33.0497V33.6042H33.31V33.0497H35.5171ZM33.9533 32.0293H34.6077V36.0887C34.6077 36.2735 34.6345 36.4122 34.6881 36.5046C34.7435 36.5952 34.8138 36.6562 34.8988 36.6876C34.9857 36.7172 35.0772 36.732 35.1733 36.732C35.2454 36.732 35.3046 36.7283 35.3508 36.7209C35.397 36.7116 35.434 36.7042 35.4617 36.6987L35.5948 37.2865C35.5504 37.3032 35.4885 37.3198 35.409 37.3364C35.3295 37.3549 35.2288 37.3642 35.1068 37.3642C34.9219 37.3642 34.7408 37.3244 34.5633 37.2449C34.3877 37.1654 34.2416 37.0444 34.1252 36.8817C34.0106 36.719 33.9533 36.5138 33.9533 36.2661V32.0293ZM37.7592 37.3531C37.6224 37.3531 37.5051 37.3041 37.4071 37.2061C37.3091 37.1081 37.2601 36.9908 37.2601 36.854C37.2601 36.7172 37.3091 36.5998 37.4071 36.5018C37.5051 36.4038 37.6224 36.3549 37.7592 36.3549C37.896 36.3549 38.0134 36.4038 38.1114 36.5018C38.2093 36.5998 38.2583 36.7172 38.2583 36.854C38.2583 36.9445 38.2352 37.0277 38.189 37.1035C38.1446 37.1793 38.0846 37.2403 38.0088 37.2865C37.9348 37.3309 37.8517 37.3531 37.7592 37.3531ZM47.8486 33.4046H47.161C47.1203 33.2068 47.0491 33.033 46.9475 32.8833C46.8477 32.7336 46.7256 32.6079 46.5815 32.5062C46.4391 32.4027 46.2811 32.325 46.1073 32.2733C45.9336 32.2215 45.7524 32.1956 45.5638 32.1956C45.22 32.1956 44.9085 32.2825 44.6294 32.4563C44.3521 32.6301 44.1312 32.8861 43.9667 33.2244C43.804 33.5626 43.7227 33.9776 43.7227 34.4693C43.7227 34.9611 43.804 35.3761 43.9667 35.7143C44.1312 36.0526 44.3521 36.3086 44.6294 36.4824C44.9085 36.6562 45.22 36.743 45.5638 36.743C45.7524 36.743 45.9336 36.7172 46.1073 36.6654C46.2811 36.6137 46.4391 36.5369 46.5815 36.4353C46.7256 36.3317 46.8477 36.2051 46.9475 36.0554C47.0491 35.9038 47.1203 35.7301 47.161 35.5341H47.8486C47.7969 35.8243 47.7026 36.084 47.5658 36.3133C47.429 36.5425 47.259 36.7375 47.0556 36.8983C46.8523 37.0573 46.624 37.1784 46.3707 37.2616C46.1193 37.3447 45.8504 37.3863 45.5638 37.3863C45.0795 37.3863 44.6488 37.268 44.2717 37.0314C43.8946 36.7948 43.5979 36.4584 43.3816 36.0221C43.1654 35.5859 43.0572 35.0683 43.0572 34.4693C43.0572 33.8704 43.1654 33.3528 43.3816 32.9166C43.5979 32.4803 43.8946 32.1439 44.2717 31.9073C44.6488 31.6707 45.0795 31.5524 45.5638 31.5524C45.8504 31.5524 46.1193 31.5939 46.3707 31.6771C46.624 31.7603 46.8523 31.8823 47.0556 32.0431C47.259 32.2021 47.429 32.3962 47.5658 32.6254C47.7026 32.8528 47.7969 33.1125 47.8486 33.4046ZM51.3822 37.3974C50.9977 37.3974 50.6603 37.3059 50.3701 37.1229C50.0817 36.9399 49.8562 36.6839 49.6935 36.3549C49.5327 36.0258 49.4523 35.6413 49.4523 35.2014C49.4523 34.7577 49.5327 34.3705 49.6935 34.0396C49.8562 33.7087 50.0817 33.4517 50.3701 33.2687C50.6603 33.0857 50.9977 32.9942 51.3822 32.9942C51.7667 32.9942 52.1031 33.0857 52.3915 33.2687C52.6817 33.4517 52.9072 33.7087 53.068 34.0396C53.2307 34.3705 53.312 34.7577 53.312 35.2014C53.312 35.6413 53.2307 36.0258 53.068 36.3549C52.9072 36.6839 52.6817 36.9399 52.3915 37.1229C52.1031 37.3059 51.7667 37.3974 51.3822 37.3974ZM51.3822 36.8096C51.6742 36.8096 51.9145 36.7347 52.1031 36.585C52.2916 36.4353 52.4312 36.2384 52.5218 35.9944C52.6124 35.7504 52.6576 35.486 52.6576 35.2014C52.6576 34.9167 52.6124 34.6514 52.5218 34.4056C52.4312 34.1597 52.2916 33.961 52.1031 33.8094C51.9145 33.6578 51.6742 33.5821 51.3822 33.5821C51.0901 33.5821 50.8498 33.6578 50.6612 33.8094C50.4727 33.961 50.3331 34.1597 50.2425 34.4056C50.152 34.6514 50.1067 34.9167 50.1067 35.2014C50.1067 35.486 50.152 35.7504 50.2425 35.9944C50.3331 36.2384 50.4727 36.4353 50.6612 36.585C50.8498 36.7347 51.0901 36.8096 51.3822 36.8096ZM55.7461 34.7466V37.3087H55.0918V33.0497H55.724V33.7151H55.7794C55.8792 33.4989 56.0308 33.3251 56.2342 33.1939C56.4375 33.0608 56.7 32.9942 57.0216 32.9942C57.31 32.9942 57.5623 33.0534 57.7786 33.1717C57.9949 33.2881 58.1631 33.4656 58.2833 33.7041C58.4034 33.9407 58.4635 34.2401 58.4635 34.6024V37.3087H57.8091V34.6468C57.8091 34.3122 57.7222 34.0516 57.5485 33.8649C57.3747 33.6763 57.1362 33.5821 56.8331 33.5821C56.6242 33.5821 56.4375 33.6273 56.273 33.7179C56.1103 33.8085 55.9818 33.9407 55.8875 34.1144C55.7933 34.2882 55.7461 34.4989 55.7461 34.7466ZM62.2923 33.0497V33.6042H60.0852V33.0497H62.2923ZM60.7284 32.0293H61.3828V36.0887C61.3828 36.2735 61.4096 36.4122 61.4632 36.5046C61.5187 36.5952 61.5889 36.6562 61.674 36.6876C61.7609 36.7172 61.8524 36.732 61.9485 36.732C62.0206 36.732 62.0797 36.7283 62.1259 36.7209C62.1722 36.7116 62.2091 36.7042 62.2369 36.6987L62.37 37.2865C62.3256 37.3032 62.2637 37.3198 62.1842 37.3364C62.1047 37.3549 62.0039 37.3642 61.8819 37.3642C61.6971 37.3642 61.5159 37.3244 61.3385 37.2449C61.1629 37.1654 61.0168 37.0444 60.9004 36.8817C60.7858 36.719 60.7284 36.5138 60.7284 36.2661V32.0293ZM64.0575 37.3087V33.0497H64.6897V33.693H64.734C64.8117 33.4822 64.9522 33.3112 65.1555 33.18C65.3588 33.0487 65.5881 32.9831 65.8432 32.9831C65.8912 32.9831 65.9513 32.984 66.0234 32.9859C66.0955 32.9877 66.15 32.9905 66.187 32.9942V33.6597C66.1648 33.6541 66.114 33.6458 66.0345 33.6347C65.9569 33.6218 65.8746 33.6153 65.7877 33.6153C65.5807 33.6153 65.3958 33.6588 65.2331 33.7456C65.0723 33.8307 64.9448 33.949 64.8505 34.1006C64.7581 34.2503 64.7119 34.4213 64.7119 34.6135V37.3087H64.0575ZM69.3441 37.3974C68.9596 37.3974 68.6223 37.3059 68.332 37.1229C68.0437 36.9399 67.8181 36.6839 67.6555 36.3549C67.4946 36.0258 67.4142 35.6413 67.4142 35.2014C67.4142 34.7577 67.4946 34.3705 67.6555 34.0396C67.8181 33.7087 68.0437 33.4517 68.332 33.2687C68.6223 33.0857 68.9596 32.9942 69.3441 32.9942C69.7286 32.9942 70.065 33.0857 70.3534 33.2687C70.6436 33.4517 70.8692 33.7087 71.03 34.0396C71.1926 34.3705 71.274 34.7577 71.274 35.2014C71.274 35.6413 71.1926 36.0258 71.03 36.3549C70.8692 36.6839 70.6436 36.9399 70.3534 37.1229C70.065 37.3059 69.7286 37.3974 69.3441 37.3974ZM69.3441 36.8096C69.6362 36.8096 69.8765 36.7347 70.065 36.585C70.2536 36.4353 70.3932 36.2384 70.4837 35.9944C70.5743 35.7504 70.6196 35.486 70.6196 35.2014C70.6196 34.9167 70.5743 34.6514 70.4837 34.4056C70.3932 34.1597 70.2536 33.961 70.065 33.8094C69.8765 33.6578 69.6362 33.5821 69.3441 33.5821C69.052 33.5821 68.8117 33.6578 68.6232 33.8094C68.4346 33.961 68.2951 34.1597 68.2045 34.4056C68.1139 34.6514 68.0686 34.9167 68.0686 35.2014C68.0686 35.486 68.1139 35.7504 68.2045 35.9944C68.2951 36.2384 68.4346 36.4353 68.6232 36.585C68.8117 36.7347 69.052 36.8096 69.3441 36.8096ZM73.7081 31.63V37.3087H73.0537V31.63H73.7081ZM76.1644 37.3531C76.0276 37.3531 75.9102 37.3041 75.8122 37.2061C75.7143 37.1081 75.6653 36.9908 75.6653 36.854C75.6653 36.7172 75.7143 36.5998 75.8122 36.5018C75.9102 36.4038 76.0276 36.3549 76.1644 36.3549C76.3012 36.3549 76.4186 36.4038 76.5165 36.5018C76.6145 36.5998 76.6635 36.7172 76.6635 36.854C76.6635 36.9445 76.6404 37.0277 76.5942 37.1035C76.5498 37.1793 76.4897 37.2403 76.4139 37.2865C76.34 37.3309 76.2568 37.3531 76.1644 37.3531ZM86.2538 33.4046H85.5661C85.5255 33.2068 85.4543 33.033 85.3526 32.8833C85.2528 32.7336 85.1308 32.6079 84.9866 32.5062C84.8443 32.4027 84.6862 32.325 84.5125 32.2733C84.3387 32.2215 84.1575 32.1956 83.969 32.1956C83.6252 32.1956 83.3137 32.2825 83.0346 32.4563C82.7573 32.6301 82.5364 32.8861 82.3719 33.2244C82.2092 33.5626 82.1278 33.9776 82.1278 34.4693C82.1278 34.9611 82.2092 35.3761 82.3719 35.7143C82.5364 36.0526 82.7573 36.3086 83.0346 36.4824C83.3137 36.6562 83.6252 36.743 83.969 36.743C84.1575 36.743 84.3387 36.7172 84.5125 36.6654C84.6862 36.6137 84.8443 36.5369 84.9866 36.4353C85.1308 36.3317 85.2528 36.2051 85.3526 36.0554C85.4543 35.9038 85.5255 35.7301 85.5661 35.5341H86.2538C86.202 35.8243 86.1077 36.084 85.971 36.3133C85.8342 36.5425 85.6641 36.7375 85.4608 36.8983C85.2574 37.0573 85.0291 37.1784 84.7759 37.2616C84.5245 37.3447 84.2555 37.3863 83.969 37.3863C83.4847 37.3863 83.054 37.268 82.6769 37.0314C82.2998 36.7948 82.0031 36.4584 81.7868 36.0221C81.5705 35.5859 81.4624 35.0683 81.4624 34.4693C81.4624 33.8704 81.5705 33.3528 81.7868 32.9166C82.0031 32.4803 82.2998 32.1439 82.6769 31.9073C83.054 31.6707 83.4847 31.5524 83.969 31.5524C84.2555 31.5524 84.5245 31.5939 84.7759 31.6771C85.0291 31.7603 85.2574 31.8823 85.4608 32.0431C85.6641 32.2021 85.8342 32.3962 85.971 32.6254C86.1077 32.8528 86.202 33.1125 86.2538 33.4046ZM89.7873 37.3974C89.4028 37.3974 89.0655 37.3059 88.7752 37.1229C88.4869 36.9399 88.2613 36.6839 88.0987 36.3549C87.9378 36.0258 87.8574 35.6413 87.8574 35.2014C87.8574 34.7577 87.9378 34.3705 88.0987 34.0396C88.2613 33.7087 88.4869 33.4517 88.7752 33.2687C89.0655 33.0857 89.4028 32.9942 89.7873 32.9942C90.1718 32.9942 90.5082 33.0857 90.7966 33.2687C91.0868 33.4517 91.3124 33.7087 91.4732 34.0396C91.6358 34.3705 91.7172 34.7577 91.7172 35.2014C91.7172 35.6413 91.6358 36.0258 91.4732 36.3549C91.3124 36.6839 91.0868 36.9399 90.7966 37.1229C90.5082 37.3059 90.1718 37.3974 89.7873 37.3974ZM89.7873 36.8096C90.0794 36.8096 90.3197 36.7347 90.5082 36.585C90.6968 36.4353 90.8364 36.2384 90.9269 35.9944C91.0175 35.7504 91.0628 35.486 91.0628 35.2014C91.0628 34.9167 91.0175 34.6514 90.9269 34.4056C90.8364 34.1597 90.6968 33.961 90.5082 33.8094C90.3197 33.6578 90.0794 33.5821 89.7873 33.5821C89.4952 33.5821 89.2549 33.6578 89.0664 33.8094C88.8778 33.961 88.7383 34.1597 88.6477 34.4056C88.5571 34.6514 88.5118 34.9167 88.5118 35.2014C88.5118 35.486 88.5571 35.7504 88.6477 35.9944C88.7383 36.2384 88.8778 36.4353 89.0664 36.585C89.2549 36.7347 89.4952 36.8096 89.7873 36.8096ZM93.4969 37.3087V33.0497H94.1291V33.7151H94.1846C94.2733 33.4878 94.4166 33.3112 94.6143 33.1855C94.8121 33.058 95.0497 32.9942 95.327 32.9942C95.6079 32.9942 95.8418 33.058 96.0285 33.1855C96.217 33.3112 96.364 33.4878 96.4694 33.7151H96.5137C96.6228 33.4952 96.7864 33.3205 97.0045 33.1911C97.2226 33.0598 97.4842 32.9942 97.7892 32.9942C98.17 32.9942 98.4815 33.1134 98.7236 33.3519C98.9658 33.5885 99.0869 33.9573 99.0869 34.4583V37.3087H98.4325V34.4583C98.4325 34.144 98.3465 33.9194 98.1746 33.7845C98.0027 33.6495 97.8003 33.5821 97.5674 33.5821C97.2679 33.5821 97.0359 33.6726 96.8714 33.8538C96.7069 34.0331 96.6246 34.2605 96.6246 34.5359V37.3087H95.9592V34.3917C95.9592 34.1496 95.8806 33.9545 95.7235 33.8066C95.5663 33.6569 95.3639 33.5821 95.1162 33.5821C94.9462 33.5821 94.7872 33.6273 94.6393 33.7179C94.4933 33.8085 94.375 33.9342 94.2844 34.095C94.1957 34.254 94.1513 34.4379 94.1513 34.6468V37.3087H93.4969ZM101.064 38.9058V33.0497H101.696V33.7262H101.774C101.822 33.6523 101.889 33.558 101.974 33.4434C102.061 33.327 102.184 33.2234 102.345 33.1329C102.508 33.0404 102.728 32.9942 103.005 32.9942C103.364 32.9942 103.68 33.0839 103.953 33.2632C104.227 33.4425 104.441 33.6967 104.594 34.0257C104.747 34.3547 104.824 34.7429 104.824 35.1903C104.824 35.6413 104.747 36.0323 104.594 36.3632C104.441 36.6922 104.228 36.9473 103.956 37.1285C103.684 37.3078 103.371 37.3974 103.016 37.3974C102.743 37.3974 102.524 37.3521 102.359 37.2616C102.195 37.1691 102.068 37.0647 101.979 36.9482C101.89 36.8299 101.822 36.732 101.774 36.6543H101.719V38.9058H101.064ZM101.707 35.1792C101.707 35.5008 101.755 35.7846 101.849 36.0304C101.943 36.2744 102.081 36.4658 102.262 36.6044C102.443 36.7412 102.665 36.8096 102.927 36.8096C103.201 36.8096 103.429 36.7375 103.612 36.5933C103.797 36.4473 103.936 36.2513 104.028 36.0055C104.123 35.7578 104.17 35.4823 104.17 35.1792C104.17 34.8797 104.123 34.6098 104.031 34.3695C103.94 34.1274 103.803 33.936 103.618 33.7956C103.435 33.6532 103.205 33.5821 102.927 33.5821C102.661 33.5821 102.438 33.6495 102.256 33.7845C102.075 33.9176 101.939 34.1043 101.846 34.3446C101.754 34.583 101.707 34.8612 101.707 35.1792ZM107.258 31.63V37.3087H106.603V31.63H107.258ZM109.658 38.9058C109.547 38.9058 109.449 38.8966 109.362 38.8781C109.275 38.8615 109.215 38.8448 109.181 38.8282L109.348 38.2515C109.507 38.2921 109.647 38.3069 109.769 38.2958C109.891 38.2847 109.999 38.2302 110.094 38.1322C110.19 38.0361 110.278 37.8799 110.357 37.6636L110.479 37.3309L108.904 33.0497H109.614L110.79 36.4436H110.834L112.01 33.0497H112.72L110.912 37.9298C110.83 38.1498 110.73 38.3319 110.609 38.4761C110.489 38.6221 110.35 38.7302 110.191 38.8005C110.034 38.8707 109.856 38.9058 109.658 38.9058Z" fill="#A4A6AF"/>
<defs>
<linearGradient id="paint0_linear_49_1325" x1="59.8344" y1="5.94214" x2="59.8344" y2="8.7738e-05" gradientUnits="userSpaceOnUse">
<stop offset="0.100962" stop-color="#320F4F"/>
<stop offset="1" stop-color="#38C0EE"/>
</linearGradient>
<linearGradient id="paint1_linear_49_1325" x1="50.5667" y1="28.3088" x2="50.5667" y2="0.589613" gradientUnits="userSpaceOnUse">
<stop stop-color="#37CCF7"/>
<stop offset="1" stop-color="#39105E"/>
</linearGradient>
</defs>
</svg>
