<svg width="48" height="48" viewBox="0 0 48 48" fill="none" xmlns="http://www.w3.org/2000/svg">
<path d="M23.9808 48C20.6023 48 17.4527 47.3826 14.5318 46.1479C11.6108 44.9131 9.07553 43.22 6.92587 41.0686C4.77621 38.9172 3.08447 36.3799 1.85066 33.4566C0.616887 30.5334 0 27.3812 0 24C0 20.6445 0.615177 17.5083 1.84553 14.5913C3.07589 11.6744 4.76762 9.13708 6.92074 6.97935C9.07382 4.82166 11.6108 3.11902 14.5318 1.87141C17.4527 0.623802 20.5987 0 23.9699 0C26.7241 0 29.3052 0.41156 31.7135 1.23468C33.1314 1.71933 34.4792 2.31835 35.7567 3.03174C37.1666 3.81902 37.3046 5.72019 36.1629 6.86209C35.2571 7.76795 33.8407 7.87461 32.7103 7.27209C31.7506 6.76062 30.7412 6.33095 29.6821 5.9831C27.9035 5.39897 25.9995 5.1069 23.9699 5.1069C18.6417 5.1069 14.1615 6.9187 10.5293 10.5423C6.89716 14.1659 5.08109 18.6541 5.08109 24.0071C5.08109 29.36 6.89676 33.8496 10.5281 37.4757C14.1595 41.1018 18.6387 42.9148 23.9658 42.9148C29.293 42.9148 33.7736 41.1027 37.4077 37.4784C41.0418 33.854 42.8588 29.3649 42.8588 24.0109C42.8588 23.1245 42.7956 22.2574 42.6691 21.4095C42.6249 21.1125 42.5737 20.8188 42.5157 20.5283C42.3188 19.5425 42.5633 18.5018 43.2719 17.7888C44.6564 16.3958 46.998 16.884 47.4153 18.8031C47.4489 18.9576 47.481 19.1125 47.5117 19.268C47.8116 20.7888 47.9616 22.3626 47.9616 23.9894C47.9616 27.3776 47.3383 30.5334 46.0917 33.4566C44.8451 36.3799 43.1438 38.9189 40.9878 41.0737C38.8318 43.2286 36.2965 44.9216 33.3819 46.153C30.4673 47.3843 27.3336 48 23.9808 48ZM23.3855 32.2565C21.821 33.8216 19.2829 33.8189 17.7217 32.2504L12.3014 26.805C11.3273 25.8263 11.3252 24.2451 12.2966 23.2639C13.2769 22.2738 14.8755 22.2701 15.8603 23.2557L17.7199 25.1167C19.2827 26.6808 21.8179 26.6802 23.3801 25.1156L42.6123 5.85247C43.5986 4.8646 45.1979 4.85999 46.1899 5.84216C47.1882 6.83057 47.1923 8.44231 46.1991 9.43582L23.3855 32.2565Z" fill="url(#paint0_linear_692_2198)"/>
<defs>
<linearGradient id="paint0_linear_692_2198" x1="8.30195" y1="39.2603" x2="48" y2="4.40661" gradientUnits="userSpaceOnUse">
<stop stop-color="#6300B1"/>
<stop offset="1" stop-color="#8C01FA"/>
</linearGradient>
</defs>
</svg>
